HIERARCHY
ROOT Hips
{
	OFFSET 0.000000 0.000000 0.000000 
	CHANNELS 6 Xposition Yposition Zposition Zrotation Xrotation Yrotation
	JOINT LeftUpLeg
	{
		OFFSET 2.390000 -0.997500 0.003131 
		CHANNELS 3 Zrotation Xrotation Yrotation
		JOINT LeftUpLegRoll
		{
			OFFSET -0.008228 -5.368025 -0.050000 
			CHANNELS 3 Zrotation Xrotation Yrotation
			JOINT LeftLeg
			{
				OFFSET 0.008228 -5.304475 -0.040000 
				CHANNELS 3 Zrotation Xrotation Yrotation
				JOINT LeftLegRoll
				{
					OFFSET 0.008266 -8.023550 -0.789272 
					CHANNELS 3 Zrotation Xrotation Yrotation
					JOINT LeftFoot
					{
						OFFSET -0.008285 -2.447005 -0.176461 
						CHANNELS 3 Zrotation Xrotation Yrotation
						End Site
						{
							OFFSET -0.006362 -1.603547 3.533050 
						}
					}
				}
			}
		}
	}
	JOINT RightUpLeg
	{
		OFFSET -2.390000 -0.997500 0.003131 
		CHANNELS 3 Zrotation Xrotation Yrotation
		JOINT RightUpLegRoll
		{
			OFFSET 0.007500 -5.367500 -0.050000 
			CHANNELS 3 Zrotation Xrotation Yrotation
			JOINT RightLeg
			{
				OFFSET -0.007500 -5.305000 -0.040000 
				CHANNELS 3 Zrotation Xrotation Yrotation
				JOINT RightLegRoll
				{
					OFFSET 0.005000 -8.024050 -0.790258 
					CHANNELS 3 Zrotation Xrotation Yrotation
					JOINT RightFoot
					{
						OFFSET 0.020000 -2.446472 -0.175476 
						CHANNELS 3 Zrotation Xrotation Yrotation
						End Site
						{
							OFFSET 0.010000 -1.603528 3.533050 
						}
					}
				}
			}
		}
	}
	JOINT Spine
	{
		OFFSET 0.000000 2.857200 0.095838 
		CHANNELS 3 Zrotation Xrotation Yrotation
		JOINT Spine1
		{
			OFFSET 0.000000 3.491675 -0.016748 
			CHANNELS 3 Zrotation Xrotation Yrotation
			JOINT Spine2
			{
				OFFSET 0.000000 2.811225 -0.017190 
				CHANNELS 3 Zrotation Xrotation Yrotation
				JOINT Spine3
				{
					OFFSET 0.000000 3.297825 -0.158152 
					CHANNELS 3 Zrotation Xrotation Yrotation
					JOINT LeftShoulder
					{
						OFFSET 2.247500 -0.945430 -0.255617 
						CHANNELS 3 Zrotation Xrotation Yrotation
						JOINT LeftArm
						{
							OFFSET 2.422500 0.192500 0.242500 
							CHANNELS 3 Zrotation Xrotation Yrotation
							JOINT LeftArmRoll
							{
								OFFSET 3.011150 -0.056125 -0.149282 
								CHANNELS 3 Zrotation Xrotation Yrotation
								JOINT LeftForeArm
								{
									OFFSET 3.544950 0.021691 -0.254337 
									CHANNELS 3 Zrotation Xrotation Yrotation
									JOINT LeftForeArmRoll
									{
										OFFSET 3.242425 0.024099 -0.017220 
										CHANNELS 3 Zrotation Xrotation Yrotation
										End Site
										{
											OFFSET 3.371325 0.031393 -0.007218 
										}
									}
								}
							}
						}
					}
					JOINT RightShoulder
					{
						OFFSET -2.247500 -0.945430 -0.255617 
						CHANNELS 3 Zrotation Xrotation Yrotation
						JOINT RightArm
						{
							OFFSET -2.422500 0.192500 0.242500 
							CHANNELS 3 Zrotation Xrotation Yrotation
							JOINT RightArmRoll
							{
								OFFSET -3.062100 -0.062702 -0.132500 
								CHANNELS 3 Zrotation Xrotation Yrotation
								JOINT RightForeArm
								{
									OFFSET -3.498150 0.035499 -0.338573 
									CHANNELS 3 Zrotation Xrotation Yrotation
									JOINT RightForeArmRoll
									{
										OFFSET -3.278950 0.026904 0.120309 
										CHANNELS 3 Zrotation Xrotation Yrotation
										End Site
										{
											OFFSET -3.349925 0.018716 0.058049 
										}
									}
								}
							}
						}
					}
					JOINT Neck
					{
						OFFSET 0.000000 1.108613 -0.101302 
						CHANNELS 3 Zrotation Xrotation Yrotation
						End Site
						{
							OFFSET 0.000000 1.617325 0.410885 
						}
					}
				}
			}
		}
	}
}
MOTION
Frames: 6
Frame Time: 0.041667
-1.356080 24.201025 -8.105025 1.682430 4.988000 4.879080 -3.939950 -32.770100 -9.579590 0.000000 -0.000000 0.000000 -7.448960 36.081001 2.540700 0.000000 -0.000000 0.000000 2.970670 8.736520 -1.252190 2.178690 7.042040 -8.612800 0.000000 0.000000 0.000000 -1.009120 -2.611930 -0.180360 -0.000000 0.000000 0.000000 -0.812027 -9.105490 1.751300 -3.162990 1.042180 0.876024 -0.000000 0.000000 -0.000000 0.000000 0.000000 -0.000000 0.000000 -0.000000 0.000000 -14.347300 -1.180840 -0.378928 -82.536598 49.324402 39.608398 0.000000 -0.000000 0.000000 11.250000 -20.251699 -27.455400 -0.000000 0.000000 -0.000000 10.843000 0.295378 3.704550 80.654602 55.899101 -30.144699 -0.000000 0.000000 0.000000 -14.691800 -23.284000 27.977200 -0.000000 0.000000 0.000000 0.000000 0.000000 0.000000 
-1.289340 23.918976 -7.088100 0.190620 5.091720 5.236060 -3.912020 -33.189602 -10.810100 0.000000 -0.000000 0.000000 -3.425640 20.776400 0.616303 0.000000 -0.000000 0.000000 2.141730 8.825710 -1.092020 3.923980 9.435700 -8.134430 0.000000 0.000000 0.000000 -0.986570 -2.655810 -0.153620 -0.000000 0.000000 0.000000 -1.500640 -10.189900 1.656360 -1.703130 0.973124 0.961853 -0.000000 0.000000 -0.000000 0.000000 0.000000 -0.000000 0.000000 -0.000000 0.000000 -14.656400 -1.164930 -0.097422 -83.852203 47.771900 41.195702 0.000000 -0.000000 0.000000 11.455600 -18.460800 -25.675699 -0.000000 0.000000 -0.000000 10.784300 0.260960 3.987660 75.617599 54.783901 -25.347300 -0.000000 0.000000 0.000000 -14.644500 -23.720800 28.480600 -0.000000 0.000000 0.000000 0.000000 0.000000 0.000000 
-1.182472 23.582525 -5.933775 -0.816087 4.886930 5.327650 -3.504040 -32.475601 -11.489400 0.000000 -0.000000 0.000000 -1.696010 11.618300 0.148656 0.000000 -0.000000 0.000000 1.625220 10.260300 -1.098290 4.902580 12.001800 -7.526810 0.000000 0.000000 0.000000 -0.803872 -1.204540 -0.071244 -0.000000 0.000000 0.000000 -2.127250 -11.099200 1.362660 -0.575345 0.801979 1.136310 -0.000000 0.000000 -0.000000 0.000000 0.000000 -0.000000 0.000000 -0.000000 0.000000 -14.708900 -1.139810 0.092234 -84.702599 45.795700 42.123199 0.000000 -0.000000 0.000000 10.750800 -17.486500 -23.590599 -0.000000 0.000000 -0.000000 10.628700 0.224263 4.225670 72.701202 54.165699 -22.385300 -0.000000 0.000000 0.000000 -14.501300 -24.109400 28.809200 -0.000000 0.000000 0.000000 0.000000 0.000000 0.000000 
-1.021545 23.262550 -4.695475 -0.940594 4.464050 5.036060 -4.011300 -32.302200 -11.815000 0.000000 -0.000000 0.000000 -1.508210 9.930300 0.118175 0.000000 -0.000000 0.000000 1.494470 12.008500 -1.163900 4.506660 14.213900 -6.047190 0.000000 0.000000 0.000000 -0.366835 1.503740 -0.090206 -0.000000 0.000000 0.000000 -2.845940 -11.724200 0.947790 -0.382219 0.679065 1.162410 -0.000000 0.000000 -0.000000 0.000000 0.000000 -0.000000 0.000000 -0.000000 0.000000 -14.642400 -1.111390 0.241476 -85.583801 44.215302 43.228199 0.000000 -0.000000 0.000000 10.263200 -16.413500 -21.827700 -0.000000 0.000000 -0.000000 10.669900 0.225296 4.240530 71.546600 54.478699 -21.397600 -0.000000 0.000000 0.000000 -14.707600 -24.233200 29.182800 -0.000000 0.000000 0.000000 0.000000 0.000000 0.000000 
-0.792297 23.063175 -3.410425 -0.220732 4.047750 4.832160 -6.325870 -33.102299 -13.534700 0.000000 -0.000000 0.000000 -2.519900 16.302000 0.311894 0.000000 -0.000000 0.000000 4.482860 13.612400 -1.103990 2.997530 16.956301 -2.785230 0.000000 0.000000 0.000000 0.460871 3.893010 -0.302504 -0.000000 0.000000 0.000000 -3.885690 -9.012330 -0.181676 -0.773898 0.607407 0.927947 -0.000000 0.000000 -0.000000 0.000000 0.000000 -0.000000 0.000000 -0.000000 0.000000 -14.813000 -1.126930 0.252353 -85.521797 42.960701 43.547199 0.000000 -0.000000 0.000000 9.626930 -14.527700 -19.193600 -0.000000 0.000000 -0.000000 11.561500 0.312470 3.933440 71.226898 54.897999 -21.878401 -0.000000 0.000000 0.000000 -15.655300 -23.868799 29.704500 -0.000000 0.000000 0.000000 0.000000 0.000000 0.000000 
-0.512645 23.112675 -2.087925 0.478530 3.470500 4.856770 -8.087700 -32.549500 -15.264200 0.000000 -0.000000 0.000000 -3.974870 22.585100 0.693449 0.000000 -0.000000 0.000000 9.077840 12.841100 -0.776962 0.652387 17.144100 2.343990 0.000000 0.000000 0.000000 2.390970 11.172000 -0.811949 -0.000000 0.000000 0.000000 -3.776880 -3.200380 -1.040900 -0.895097 0.489323 0.696297 -0.000000 0.000000 -0.000000 0.000000 0.000000 -0.000000 0.000000 -0.000000 0.000000 -15.230600 -1.237340 -0.276881 -83.181503 41.370701 41.103298 0.000000 -0.000000 0.000000 8.626960 -12.387500 -16.213900 -0.000000 0.000000 -0.000000 12.857500 0.438476 3.559950 71.693001 53.967899 -23.110800 -0.000000 0.000000 0.000000 -15.531500 -24.151899 29.934200 -0.000000 0.000000 0.000000 0.000000 0.000000 0.000000 
